# Blender v2.82 (sub 7) OBJ File: ''
# www.blender.org
mtllib box1_high.mtl
o Куб.001
v -0.087855 -0.082446 0.000215
v -0.087519 -0.080255 0.123117
v -0.087658 0.062423 0.123117
v -0.087855 0.064614 0.000215
v 0.072219 0.061777 0.123117
v 0.072417 0.064614 0.000215
v 0.072080 -0.079609 0.123117
v 0.072417 -0.082446 0.000215
v 0.071960 0.061621 0.127161
v 0.152259 0.061621 0.153802
v 0.153248 0.061777 0.150438
v 0.071960 -0.079453 0.127161
v 0.152259 -0.079453 0.153802
v -0.087398 -0.079453 0.127161
v -0.086530 -0.081347 0.004239
v -0.086530 0.063515 0.004239
v -0.087398 0.061621 0.127161
v 0.071092 0.063515 0.004239
v 0.071092 -0.081347 0.004239
v 0.071960 0.130128 0.161041
v 0.072219 0.131783 0.157753
v -0.087658 0.131783 0.157753
v -0.087398 0.130128 0.161041
v -0.087398 -0.148001 0.161263
v -0.087519 -0.149575 0.157532
v 0.072080 -0.149575 0.157532
v 0.071960 -0.148001 0.161263
v -0.168724 0.062423 0.150445
v -0.168724 -0.080255 0.150445
v -0.167661 -0.079453 0.153794
v -0.167661 0.061621 0.153794
v 0.153248 -0.079609 0.150438
vt 0.319402 0.030205
vt 0.979404 0.030205
vt 0.979404 0.690207
vt 0.319402 0.690207
vt 0.337600 0.037537
vt 0.976131 0.037537
vt 0.976131 0.676068
vt 0.337600 0.676068
vt 0.200805 0.401484
vt 0.401484 0.401484
vt 0.401484 0.602163
vt 0.200805 0.602163
vt 0.249889 0.111513
vt 0.828787 0.111513
vt 0.828787 0.690412
vt 0.249889 0.690412
vt 0.612066 0.208534
vt 0.812745 0.208534
vt 0.812745 0.409213
vt 0.612066 0.409213
vt 0.405723 0.405723
vt 0.405723 0.405723
vt 0.401484 0.401484
vt 0.960073 0.052690
vt 0.967536 0.950956
vt 0.012312 0.954667
vt 0.017287 0.048979
vt 0.999874 0.000126
vt 0.803093 0.000126
vt 0.803093 0.200805
vt 0.999874 0.200805
vt 0.803093 0.401484
vt 0.999874 0.401484
vt 0.803093 0.602163
vt 0.999874 0.602162
vt 0.803093 0.802841
vt 0.999874 0.802841
vt 0.602415 0.401484
vt 0.602415 0.602163
vt 0.043814 0.552589
vt 0.023722 0.551465
vt 0.974949 0.551465
vt 0.954856 0.552589
vt 0.923872 0.857875
vt 0.938797 0.108050
vt 0.063175 0.108050
vt 0.063175 0.857875
vt 0.972511 0.022697
vt 0.979973 0.969202
vt 0.012312 0.969202
vt 0.007337 0.015276
vt 0.789938 0.598865
vt 0.795570 0.601221
vt 0.136667 0.601221
vt 0.140359 0.598865
vt 0.401484 0.401484
vt 0.405723 0.405723
vt 0.602163 0.401484
vt 0.597924 0.405723
vt 0.597924 0.405723
vt 0.602163 0.401484
vt 0.017287 0.041866
vt 0.022262 0.940133
vt 0.989924 0.958686
vt 0.992411 0.030734
vt 0.597924 0.597924
vt 0.602163 0.602163
vt 0.602163 0.602163
vt 0.597924 0.597924
vt 0.969041 0.977006
vt 0.969041 0.027256
vt 0.040393 0.027256
vt 0.040393 0.977006
vt 0.405723 0.597924
vt 0.405723 0.597924
vt 0.401484 0.602163
vt 0.686288 0.015721
vt 0.686288 0.824660
vt 0.680464 0.759041
vt 0.680464 0.081341
vt 0.402842 0.959413
vt 0.402842 0.044233
vt 0.404364 0.063564
vt 0.404364 0.940082
vt 0.976111 0.980026
vt 0.971135 0.022389
vt 0.010936 0.014968
vt 0.013424 0.976315
vt 0.988443 0.971829
vt 0.988443 0.046660
vt 0.001091 0.046660
vt 0.001091 0.971829
vt 0.602163 0.401484
vt 0.597924 0.405723
vt 0.977486 0.018679
vt 0.979973 0.965183
vt 0.007337 0.987447
vt 0.014800 0.014968
vt 0.597924 0.597924
vt 0.602163 0.602163
vt 0.401484 0.602163
vt 0.405723 0.597924
vn -1.0000 -0.0005 0.0022
vn 0.0020 0.9998 0.0205
vn 1.0000 -0.0005 0.0022
vn 0.0020 -0.9998 0.0205
vn 0.0000 0.0000 -1.0000
vn -0.0133 0.9991 0.0398
vn -0.3149 0.0000 0.9491
vn 1.0000 0.0000 0.0071
vn 0.0000 -0.9999 -0.0154
vn -1.0000 0.0000 0.0071
vn 0.0000 0.9999 -0.0154
vn 0.0000 -0.0000 1.0000
vn 0.0000 0.8932 0.4496
vn 0.0009 0.4451 -0.8955
vn 0.0000 -0.4433 0.8964
vn 0.0000 -0.9214 0.3887
vn 0.9975 -0.0313 0.0631
vn -0.9977 -0.0301 0.0607
vn 0.0000 0.4454 0.8953
vn -0.9995 0.0134 0.0270
vn 0.0009 -0.4430 -0.8965
vn 0.9995 0.0137 0.0278
vn -0.9531 0.0000 0.3025
vn 0.9594 0.0000 0.2821
vn -0.3192 -0.0002 -0.9477
vn 0.3193 -0.0002 -0.9477
vn 0.0669 0.9775 0.2001
vn 0.3149 0.0000 0.9491
vn 0.0673 -0.9772 0.2013
vn -0.0134 -0.9991 0.0401
usemtl Матеріал.004
s 1
f 1/1/1 2/2/1 3/3/1 4/4/1
f 4/5/2 3/6/2 5/7/2 6/8/2
f 6/9/3 5/10/3 7/11/3 8/12/3
f 8/13/4 7/14/4 2/15/4 1/16/4
f 4/17/5 6/18/5 8/19/5 1/20/5
f 5/10/6 9/21/6 10/22/6 11/23/6
f 9/24/7 12/25/7 13/26/7 10/27/7
f 14/28/8 15/29/8 16/30/8 17/31/8
f 17/31/9 16/30/9 18/32/9 9/33/9
f 18/32/10 19/34/10 12/35/10 9/33/10
f 19/34/11 15/36/11 14/37/11 12/35/11
f 16/38/12 15/39/12 19/34/12 18/32/12
f 20/40/13 21/41/13 22/42/13 23/43/13
f 5/44/14 3/45/14 22/46/14 21/47/14
f 17/48/15 9/49/15 20/50/15 23/51/15
f 24/52/16 25/53/16 26/54/16 27/55/16
f 9/21/17 5/10/17 21/56/17 20/57/17
f 3/58/18 17/59/18 23/60/18 22/61/18
f 12/62/19 14/63/19 24/64/19 27/65/19
f 14/66/20 2/67/20 25/68/20 24/69/20
f 2/70/21 7/71/21 26/72/21 25/73/21
f 7/11/22 12/74/22 27/75/22 26/76/22
f 28/77/23 29/78/23 30/79/23 31/80/23
f 32/81/24 11/82/24 10/83/24 13/84/24
f 3/85/25 2/86/25 29/87/25 28/88/25
f 7/89/26 5/90/26 11/91/26 32/92/26
f 17/59/27 3/58/27 28/93/27 31/94/27
f 14/95/28 17/96/28 31/97/28 30/98/28
f 2/67/29 14/66/29 30/99/29 29/100/29
f 12/74/30 7/11/30 32/101/30 13/102/30
